<?xml version="1.0" standalone="no"?>
<!DOCTYPE svg PUBLIC "-//W3C//DTD SVG 20010904//EN"
 "http://www.w3.org/TR/2001/REC-SVG-20010904/DTD/svg10.dtd">
<svg version="1.0" xmlns="http://www.w3.org/2000/svg"
 width="72.000000pt" height="72.000000pt" viewBox="0 0 72.000000 72.000000"
 preserveAspectRatio="xMidYMid meet">
<metadata>
Created by potrace 1.14, written by Peter Selinger 2001-2017
</metadata>
<g transform="translate(0.000000,72.000000) scale(0.100000,-0.100000)"
fill="#000000" stroke="none">
<path d="M79 641 l-24 -19 0 -267 0 -267 24 -19 c21 -18 42 -19 283 -19 156 0
267 4 278 10 32 17 40 76 40 295 0 219 -8 278 -40 295 -11 6 -122 10 -278 10
-241 0 -262 -1 -283 -19z m361 -101 c36 -36 39 -122 6 -159 -13 -14 -12 -19 5
-40 14 -17 19 -39 19 -88 0 -55 -4 -67 -25 -88 -21 -22 -33 -25 -100 -25 l-75
0 0 210 0 210 75 0 c61 0 79 -4 95 -20z"/>
<path d="M343 503 c-8 -3 -13 -25 -13 -59 l0 -55 33 3 c31 3 32 4 32 52 0 40
-4 50 -20 56 -11 4 -26 5 -32 3z"/>
<path d="M330 265 c0 -73 12 -87 56 -67 21 10 24 18 24 60 0 55 -12 72 -52 72
-28 0 -28 0 -28 -65z"/>
</g>
</svg>
